<mxfile host="app.diagrams.net" agent="Mozilla/5.0 (Windows NT 10.0; Win64; x64) AppleWebKit/537.36 (KHTML, like Gecko) Chrome/131.0.0.0 Safari/537.36" version="25.0.3">
  <diagram name="Halaman-1" id="lArHoZF3gINwvvaXJTCt">
    <mxGraphModel dx="1050" dy="557" grid="1" gridSize="10" guides="1" tooltips="1" connect="1" arrows="1" fold="1" page="1" pageScale="1" pageWidth="827" pageHeight="1169" math="0" shadow="0">
      <root>
        <mxCell id="0" />
        <mxCell id="1" parent="0" />
        <mxCell id="3RElcuRTFDjpTE77Wpcv-1" value="Loop" style="whiteSpace=wrap;strokeWidth=2;" vertex="1" parent="1">
          <mxGeometry x="368" y="574" width="703" height="845" as="geometry" />
        </mxCell>
        <mxCell id="3RElcuRTFDjpTE77Wpcv-2" value="Start" style="whiteSpace=wrap;strokeWidth=2;" vertex="1" parent="1">
          <mxGeometry x="364" y="20" width="95" height="48" as="geometry" />
        </mxCell>
        <mxCell id="3RElcuRTFDjpTE77Wpcv-3" value="Setup Function" style="whiteSpace=wrap;strokeWidth=2;" vertex="1" parent="1">
          <mxGeometry x="327" y="118" width="167" height="48" as="geometry" />
        </mxCell>
        <mxCell id="3RElcuRTFDjpTE77Wpcv-4" value="Initialize Serial Monitor" style="whiteSpace=wrap;strokeWidth=2;" vertex="1" parent="1">
          <mxGeometry x="20" y="217" width="228" height="48" as="geometry" />
        </mxCell>
        <mxCell id="3RElcuRTFDjpTE77Wpcv-5" value="Initialize DHT22 Sensor" style="whiteSpace=wrap;strokeWidth=2;" vertex="1" parent="1">
          <mxGeometry x="298" y="217" width="226" height="48" as="geometry" />
        </mxCell>
        <mxCell id="3RElcuRTFDjpTE77Wpcv-6" value="Connect to WiFi" style="whiteSpace=wrap;strokeWidth=2;" vertex="1" parent="1">
          <mxGeometry x="574" y="217" width="174" height="48" as="geometry" />
        </mxCell>
        <mxCell id="3RElcuRTFDjpTE77Wpcv-7" value="Check WiFi Connection" style="whiteSpace=wrap;strokeWidth=2;" vertex="1" parent="1">
          <mxGeometry x="549" y="338" width="224" height="48" as="geometry" />
        </mxCell>
        <mxCell id="3RElcuRTFDjpTE77Wpcv-8" value="Display WiFi Connection Status" style="whiteSpace=wrap;strokeWidth=2;" vertex="1" parent="1">
          <mxGeometry x="545" y="458" width="232" height="66" as="geometry" />
        </mxCell>
        <mxCell id="3RElcuRTFDjpTE77Wpcv-9" value="Read Temperature and Humidity from DHT22" style="whiteSpace=wrap;strokeWidth=2;" vertex="1" parent="1">
          <mxGeometry x="550" y="599" width="222" height="66" as="geometry" />
        </mxCell>
        <mxCell id="3RElcuRTFDjpTE77Wpcv-10" value="Read Potentiometer Value" style="whiteSpace=wrap;strokeWidth=2;" vertex="1" parent="1">
          <mxGeometry x="538" y="715" width="247" height="48" as="geometry" />
        </mxCell>
        <mxCell id="3RElcuRTFDjpTE77Wpcv-11" value="Convert Potentiometer to Voltage" style="whiteSpace=wrap;strokeWidth=2;" vertex="1" parent="1">
          <mxGeometry x="539" y="814" width="244" height="66" as="geometry" />
        </mxCell>
        <mxCell id="3RElcuRTFDjpTE77Wpcv-12" value="Check DHT Sensor Readings" style="whiteSpace=wrap;strokeWidth=2;" vertex="1" parent="1">
          <mxGeometry x="533" y="930" width="256" height="48" as="geometry" />
        </mxCell>
        <mxCell id="3RElcuRTFDjpTE77Wpcv-13" value="Print DHT Read Error" style="whiteSpace=wrap;strokeWidth=2;" vertex="1" parent="1">
          <mxGeometry x="414" y="1051" width="209" height="48" as="geometry" />
        </mxCell>
        <mxCell id="3RElcuRTFDjpTE77Wpcv-14" value="Prepare URL for ThingSpeak" style="whiteSpace=wrap;strokeWidth=2;" vertex="1" parent="1">
          <mxGeometry x="674" y="1051" width="259" height="48" as="geometry" />
        </mxCell>
        <mxCell id="3RElcuRTFDjpTE77Wpcv-15" value="Send Data to ThingSpeak" style="whiteSpace=wrap;strokeWidth=2;" vertex="1" parent="1">
          <mxGeometry x="684" y="1149" width="238" height="48" as="geometry" />
        </mxCell>
        <mxCell id="3RElcuRTFDjpTE77Wpcv-16" value="Wait for Server Response" style="whiteSpace=wrap;strokeWidth=2;" vertex="1" parent="1">
          <mxGeometry x="549" y="1247" width="239" height="48" as="geometry" />
        </mxCell>
        <mxCell id="3RElcuRTFDjpTE77Wpcv-17" value="Print Server Response" style="whiteSpace=wrap;strokeWidth=2;" vertex="1" parent="1">
          <mxGeometry x="561" y="1346" width="215" height="48" as="geometry" />
        </mxCell>
        <mxCell id="3RElcuRTFDjpTE77Wpcv-18" value="Stop Client" style="whiteSpace=wrap;strokeWidth=2;" vertex="1" parent="1">
          <mxGeometry x="857" y="1247" width="139" height="48" as="geometry" />
        </mxCell>
        <mxCell id="3RElcuRTFDjpTE77Wpcv-19" value="Wait 20 Seconds" style="whiteSpace=wrap;strokeWidth=2;" vertex="1" parent="1">
          <mxGeometry x="838" y="1346" width="176" height="48" as="geometry" />
        </mxCell>
        <mxCell id="3RElcuRTFDjpTE77Wpcv-20" value="" style="curved=1;startArrow=none;endArrow=block;exitX=0.5;exitY=1.01;entryX=0.5;entryY=0.01;rounded=0;" edge="1" parent="1" source="3RElcuRTFDjpTE77Wpcv-2" target="3RElcuRTFDjpTE77Wpcv-3">
          <mxGeometry relative="1" as="geometry">
            <Array as="points" />
          </mxGeometry>
        </mxCell>
        <mxCell id="3RElcuRTFDjpTE77Wpcv-21" value="" style="curved=1;startArrow=none;endArrow=block;exitX=0;exitY=0.82;entryX=0.5;entryY=0;rounded=0;" edge="1" parent="1" source="3RElcuRTFDjpTE77Wpcv-3" target="3RElcuRTFDjpTE77Wpcv-4">
          <mxGeometry relative="1" as="geometry">
            <Array as="points">
              <mxPoint x="134" y="192" />
            </Array>
          </mxGeometry>
        </mxCell>
        <mxCell id="3RElcuRTFDjpTE77Wpcv-22" value="" style="curved=1;startArrow=none;endArrow=block;exitX=0.5;exitY=1.02;entryX=0.5;entryY=0;rounded=0;" edge="1" parent="1" source="3RElcuRTFDjpTE77Wpcv-3" target="3RElcuRTFDjpTE77Wpcv-5">
          <mxGeometry relative="1" as="geometry">
            <Array as="points" />
          </mxGeometry>
        </mxCell>
        <mxCell id="3RElcuRTFDjpTE77Wpcv-23" value="" style="curved=1;startArrow=none;endArrow=block;exitX=1;exitY=0.86;entryX=0.5;entryY=0;rounded=0;" edge="1" parent="1" source="3RElcuRTFDjpTE77Wpcv-3" target="3RElcuRTFDjpTE77Wpcv-6">
          <mxGeometry relative="1" as="geometry">
            <Array as="points">
              <mxPoint x="661" y="192" />
            </Array>
          </mxGeometry>
        </mxCell>
        <mxCell id="3RElcuRTFDjpTE77Wpcv-24" value="" style="curved=1;startArrow=none;endArrow=block;exitX=0.41;exitY=1;entryX=0.43;entryY=-0.01;rounded=0;" edge="1" parent="1" source="3RElcuRTFDjpTE77Wpcv-6" target="3RElcuRTFDjpTE77Wpcv-7">
          <mxGeometry relative="1" as="geometry">
            <Array as="points">
              <mxPoint x="624" y="301" />
            </Array>
          </mxGeometry>
        </mxCell>
        <mxCell id="3RElcuRTFDjpTE77Wpcv-25" value="Not Connected" style="curved=1;startArrow=none;endArrow=block;exitX=0.57;exitY=-0.01;entryX=0.59;entryY=1;rounded=0;" edge="1" parent="1" source="3RElcuRTFDjpTE77Wpcv-7" target="3RElcuRTFDjpTE77Wpcv-6">
          <mxGeometry relative="1" as="geometry">
            <Array as="points">
              <mxPoint x="699" y="301" />
            </Array>
          </mxGeometry>
        </mxCell>
        <mxCell id="3RElcuRTFDjpTE77Wpcv-26" value="Connected" style="curved=1;startArrow=none;endArrow=block;exitX=0.5;exitY=1;entryX=0.5;entryY=0.01;rounded=0;" edge="1" parent="1" source="3RElcuRTFDjpTE77Wpcv-7" target="3RElcuRTFDjpTE77Wpcv-8">
          <mxGeometry relative="1" as="geometry">
            <Array as="points" />
          </mxGeometry>
        </mxCell>
        <mxCell id="3RElcuRTFDjpTE77Wpcv-27" value="" style="curved=1;startArrow=none;endArrow=block;exitX=0.5;exitY=1.01;entryX=0.5;entryY=0.01;rounded=0;" edge="1" parent="1" source="3RElcuRTFDjpTE77Wpcv-9" target="3RElcuRTFDjpTE77Wpcv-10">
          <mxGeometry relative="1" as="geometry">
            <Array as="points" />
          </mxGeometry>
        </mxCell>
        <mxCell id="3RElcuRTFDjpTE77Wpcv-28" value="" style="curved=1;startArrow=none;endArrow=block;exitX=0.5;exitY=1.02;entryX=0.5;entryY=0;rounded=0;" edge="1" parent="1" source="3RElcuRTFDjpTE77Wpcv-10" target="3RElcuRTFDjpTE77Wpcv-11">
          <mxGeometry relative="1" as="geometry">
            <Array as="points" />
          </mxGeometry>
        </mxCell>
        <mxCell id="3RElcuRTFDjpTE77Wpcv-29" value="" style="curved=1;startArrow=none;endArrow=block;exitX=0.5;exitY=1;entryX=0.5;entryY=0;rounded=0;" edge="1" parent="1" source="3RElcuRTFDjpTE77Wpcv-11" target="3RElcuRTFDjpTE77Wpcv-12">
          <mxGeometry relative="1" as="geometry">
            <Array as="points" />
          </mxGeometry>
        </mxCell>
        <mxCell id="3RElcuRTFDjpTE77Wpcv-30" value="Invalid" style="curved=1;startArrow=none;endArrow=block;exitX=0.28;exitY=1;entryX=0.5;entryY=-0.01;rounded=0;" edge="1" parent="1" source="3RElcuRTFDjpTE77Wpcv-12" target="3RElcuRTFDjpTE77Wpcv-13">
          <mxGeometry relative="1" as="geometry">
            <Array as="points">
              <mxPoint x="519" y="1014" />
            </Array>
          </mxGeometry>
        </mxCell>
        <mxCell id="3RElcuRTFDjpTE77Wpcv-31" value="Valid" style="curved=1;startArrow=none;endArrow=block;exitX=0.72;exitY=1;entryX=0.5;entryY=-0.01;rounded=0;" edge="1" parent="1" source="3RElcuRTFDjpTE77Wpcv-12" target="3RElcuRTFDjpTE77Wpcv-14">
          <mxGeometry relative="1" as="geometry">
            <Array as="points">
              <mxPoint x="803" y="1014" />
            </Array>
          </mxGeometry>
        </mxCell>
        <mxCell id="3RElcuRTFDjpTE77Wpcv-32" value="" style="curved=1;startArrow=none;endArrow=block;exitX=0.5;exitY=1;entryX=0.5;entryY=0;rounded=0;" edge="1" parent="1" source="3RElcuRTFDjpTE77Wpcv-14" target="3RElcuRTFDjpTE77Wpcv-15">
          <mxGeometry relative="1" as="geometry">
            <Array as="points" />
          </mxGeometry>
        </mxCell>
        <mxCell id="3RElcuRTFDjpTE77Wpcv-33" value="" style="curved=1;startArrow=none;endArrow=block;exitX=0.22;exitY=1.01;entryX=0.5;entryY=0.01;rounded=0;" edge="1" parent="1" source="3RElcuRTFDjpTE77Wpcv-15" target="3RElcuRTFDjpTE77Wpcv-16">
          <mxGeometry relative="1" as="geometry">
            <Array as="points">
              <mxPoint x="669" y="1222" />
            </Array>
          </mxGeometry>
        </mxCell>
        <mxCell id="3RElcuRTFDjpTE77Wpcv-34" value="" style="curved=1;startArrow=none;endArrow=block;exitX=0.5;exitY=1.02;entryX=0.5;entryY=0;rounded=0;" edge="1" parent="1" source="3RElcuRTFDjpTE77Wpcv-16" target="3RElcuRTFDjpTE77Wpcv-17">
          <mxGeometry relative="1" as="geometry">
            <Array as="points" />
          </mxGeometry>
        </mxCell>
        <mxCell id="3RElcuRTFDjpTE77Wpcv-35" value="" style="curved=1;startArrow=none;endArrow=block;exitX=0.76;exitY=1.01;entryX=0.5;entryY=0.01;rounded=0;" edge="1" parent="1" source="3RElcuRTFDjpTE77Wpcv-15" target="3RElcuRTFDjpTE77Wpcv-18">
          <mxGeometry relative="1" as="geometry">
            <Array as="points">
              <mxPoint x="926" y="1222" />
            </Array>
          </mxGeometry>
        </mxCell>
        <mxCell id="3RElcuRTFDjpTE77Wpcv-36" value="" style="curved=1;startArrow=none;endArrow=block;exitX=0.5;exitY=1.02;entryX=0.5;entryY=0;rounded=0;" edge="1" parent="1" source="3RElcuRTFDjpTE77Wpcv-18" target="3RElcuRTFDjpTE77Wpcv-19">
          <mxGeometry relative="1" as="geometry">
            <Array as="points" />
          </mxGeometry>
        </mxCell>
        <mxCell id="3RElcuRTFDjpTE77Wpcv-37" value="" style="curved=1;startArrow=none;endArrow=block;rounded=0;" edge="1" parent="1" source="3RElcuRTFDjpTE77Wpcv-8" target="3RElcuRTFDjpTE77Wpcv-1">
          <mxGeometry relative="1" as="geometry">
            <Array as="points" />
          </mxGeometry>
        </mxCell>
        <mxCell id="3RElcuRTFDjpTE77Wpcv-38" value="" style="curved=1;startArrow=none;endArrow=block;rounded=0;" edge="1" parent="1" source="3RElcuRTFDjpTE77Wpcv-1" target="3RElcuRTFDjpTE77Wpcv-9">
          <mxGeometry relative="1" as="geometry">
            <Array as="points" />
          </mxGeometry>
        </mxCell>
      </root>
    </mxGraphModel>
  </diagram>
</mxfile>
